<svg width="28" height="28" viewBox="0 0 28 28" fill="none" xmlns="http://www.w3.org/2000/svg">
<g id="ri:instagram-fill">
<path id="Vector" d="M15.1992 2.3345C16.0505 2.33124 16.9019 2.33979 17.753 2.36017L17.9794 2.36834C18.2407 2.37767 18.4985 2.38934 18.81 2.40334C20.0514 2.46167 20.8984 2.65767 21.6415 2.94584C22.4115 3.24217 23.0602 3.6435 23.7089 4.29217C24.302 4.87505 24.761 5.58011 25.054 6.35834C25.3422 7.1015 25.5382 7.94967 25.5965 9.191C25.6105 9.50134 25.6222 9.76034 25.6315 10.0217L25.6385 10.248C25.6593 11.0987 25.6682 11.9497 25.6654 12.8007L25.6665 13.671V15.1993C25.6694 16.0507 25.6605 16.9021 25.6397 17.7532L25.6327 17.9795C25.6234 18.2408 25.6117 18.4987 25.5977 18.8102C25.5394 20.0515 25.341 20.8985 25.054 21.6417C24.7619 22.4207 24.3028 23.1264 23.7089 23.709C23.1255 24.302 22.4201 24.7611 21.6415 25.0542C20.8984 25.3423 20.0514 25.5383 18.81 25.5967C18.4985 25.6107 18.2407 25.6223 17.9794 25.6317L17.753 25.6387C16.9019 25.6594 16.0506 25.6684 15.1992 25.6655L14.3289 25.6667H12.8017C11.9503 25.6695 11.099 25.6606 10.2479 25.6398L10.0215 25.6328C9.74457 25.6228 9.46768 25.6111 9.19086 25.5978C7.94953 25.5395 7.10253 25.3412 6.35819 25.0542C5.57966 24.7617 4.87447 24.3026 4.29203 23.709C3.69825 23.126 3.23879 22.4205 2.94569 21.6417C2.65753 20.8985 2.46153 20.0515 2.40319 18.8102C2.3902 18.5333 2.37853 18.2564 2.36819 17.9795L2.36236 17.7532C2.34085 16.9021 2.33113 16.0507 2.33319 15.1993V12.8007C2.32994 11.9497 2.33849 11.0987 2.35886 10.248L2.36703 10.0217C2.37636 9.76034 2.38803 9.50134 2.40203 9.191C2.46036 7.9485 2.65636 7.10267 2.94453 6.35834C3.23779 5.57973 3.69815 4.87486 4.29319 4.29334C4.87524 3.69922 5.57998 3.23934 6.35819 2.94584C7.10253 2.65767 7.94836 2.46167 9.19086 2.40334L10.0215 2.36834L10.2479 2.3625C11.0986 2.34101 11.9495 2.33128 12.8005 2.33334L15.1992 2.3345ZM13.9999 8.16784C13.2269 8.15691 12.4596 8.2997 11.7423 8.58792C11.0251 8.87613 10.3723 9.30403 9.82185 9.84674C9.27141 10.3894 8.83433 11.0361 8.53599 11.7492C8.23766 12.4623 8.08403 13.2276 8.08403 14.0006C8.08403 14.7736 8.23766 15.5389 8.53599 16.2519C8.83433 16.965 9.27141 17.6117 9.82185 18.1544C10.3723 18.6971 11.0251 19.125 11.7423 19.4133C12.4596 19.7015 13.2269 19.8443 13.9999 19.8333C15.547 19.8333 17.0307 19.2188 18.1246 18.1248C19.2186 17.0308 19.8332 15.5471 19.8332 14C19.8332 12.4529 19.2186 10.9692 18.1246 9.87522C17.0307 8.78125 15.547 8.16784 13.9999 8.16784ZM13.9999 10.5012C14.4648 10.4926 14.9268 10.5768 15.3588 10.7487C15.7908 10.9207 16.1843 11.1771 16.5161 11.5028C16.8479 11.8285 17.1116 12.2171 17.2915 12.6459C17.4715 13.0747 17.5643 13.535 17.5643 14C17.5644 14.465 17.4718 14.9254 17.292 15.3542C17.1122 15.783 16.8487 16.1717 16.5169 16.4975C16.1852 16.8234 15.7918 17.0799 15.3599 17.252C14.9279 17.4241 14.466 17.5084 14.001 17.5C13.0728 17.5 12.1825 17.1313 11.5262 16.4749C10.8698 15.8185 10.501 14.9283 10.501 14C10.501 13.0717 10.8698 12.1815 11.5262 11.5251C12.1825 10.8688 13.0728 10.5 14.001 10.5L13.9999 10.5012ZM20.1249 6.41784C19.7485 6.4329 19.3925 6.59301 19.1316 6.86464C18.8706 7.13626 18.7248 7.49833 18.7248 7.875C18.7248 8.25168 18.8706 8.61375 19.1316 8.88537C19.3925 9.157 19.7485 9.31711 20.1249 9.33217C20.5116 9.33217 20.8826 9.17853 21.1561 8.90504C21.4295 8.63155 21.5832 8.26061 21.5832 7.87384C21.5832 7.48706 21.4295 7.11613 21.1561 6.84264C20.8826 6.56915 20.5116 6.4155 20.1249 6.4155V6.41784Z" fill="white"/>
</g>
</svg>
