<svg width="24" height="24" viewBox="0 0 24 24" fill="none" xmlns="http://www.w3.org/2000/svg">
<path d="M12.0012 0.333313C18.4447 0.333313 23.6678 5.55648 23.6678 12C23.6678 18.4435 18.4447 23.6666 12.0012 23.6666C9.9394 23.67 7.91392 23.1243 6.13282 22.0858L0.339156 23.6666L1.91649 17.8706C0.877098 16.089 0.331045 14.0626 0.334489 12C0.334489 5.55648 5.55766 0.333313 12.0012 0.333313ZM8.02516 6.51665L7.79182 6.52598C7.64076 6.53518 7.49313 6.57486 7.35782 6.64265C7.23126 6.71431 7.11573 6.80391 7.01482 6.90865C6.87482 7.04048 6.79549 7.15481 6.71032 7.26565C6.2788 7.8267 6.04646 8.51551 6.04999 9.22331C6.05232 9.79498 6.20166 10.3515 6.43499 10.8718C6.91216 11.9241 7.69732 13.0383 8.73332 14.0708C8.98299 14.3193 9.22799 14.569 9.49166 14.8011C10.7789 15.9345 12.313 16.7519 13.9717 17.1881L14.6343 17.2896C14.8502 17.3013 15.066 17.285 15.283 17.2745C15.6228 17.2569 15.9545 17.1649 16.2548 17.005C16.4076 16.9263 16.5567 16.8406 16.7017 16.7483C16.7017 16.7483 16.7518 16.7156 16.8475 16.6433C17.005 16.5266 17.1018 16.4438 17.2325 16.3073C17.3293 16.207 17.4133 16.0891 17.4775 15.955C17.5685 15.7648 17.6595 15.402 17.6968 15.0998C17.7248 14.8688 17.7167 14.7428 17.7132 14.6646C17.7085 14.5398 17.6047 14.4103 17.4915 14.3555L16.8125 14.051C16.8125 14.051 15.7975 13.6088 15.1768 13.3265C15.1119 13.2981 15.0423 13.2819 14.9715 13.2786C14.8917 13.2704 14.811 13.2794 14.7349 13.305C14.6589 13.3305 14.5892 13.3721 14.5305 13.4268C14.5247 13.4245 14.4465 13.491 13.603 14.513C13.5546 14.578 13.4879 14.6272 13.4114 14.6542C13.335 14.6812 13.2522 14.6849 13.1737 14.6646C13.0977 14.6443 13.0232 14.6185 12.9508 14.5876C12.8062 14.527 12.756 14.5036 12.6568 14.4616C11.9872 14.1694 11.3673 13.7747 10.8193 13.2915C10.6723 13.1631 10.5358 13.0231 10.3958 12.8878C9.93684 12.4482 9.53683 11.951 9.20582 11.4085L9.13699 11.2976C9.08755 11.2232 9.04757 11.1428 9.01799 11.0585C8.97366 10.887 9.08916 10.7493 9.08916 10.7493C9.08916 10.7493 9.37265 10.439 9.50449 10.271C9.63282 10.1076 9.74132 9.94898 9.81132 9.83581C9.94899 9.61415 9.99216 9.38665 9.91982 9.21048C9.59315 8.41248 9.25482 7.61798 8.90716 6.82931C8.83832 6.67298 8.63416 6.56098 8.44866 6.53881C8.38566 6.53181 8.32265 6.52481 8.25965 6.52015C8.10298 6.51236 7.94598 6.51392 7.78949 6.52481L8.02399 6.51548L8.02516 6.51665Z" fill="white"/>
</svg>
