<svg width="20" height="20" viewBox="0 0 20 20" fill="none" xmlns="http://www.w3.org/2000/svg">
<g id="person">
<g id="Vector">
<path d="M10 10C7.93363 10 6.11332 8.05859 5.93754 5.67188C5.84769 4.46094 6.22269 3.33984 6.99223 2.51563C7.75004 1.69922 8.82035 1.25 10 1.25C11.1719 1.25 12.2383 1.70312 13 2.52344C13.7735 3.35547 14.1485 4.47266 14.0586 5.67188C13.8829 8.05859 12.0625 10 10 10ZM10 2.5C9.17192 2.5 8.42582 2.80859 7.90629 3.36719C7.37895 3.93359 7.12113 4.72266 7.18363 5.58203C7.30863 7.30078 8.5977 8.75391 9.99614 8.75391C11.3946 8.75391 12.6836 7.30078 12.8086 5.58203C12.8711 4.73437 12.6133 3.94922 12.0782 3.375C11.5625 2.80859 10.8204 2.5 10 2.5Z" fill="#0A0A0A"/>
<path d="M16.875 18.7499H3.12505C2.75005 18.7499 2.41411 18.5937 2.17973 18.3163C1.92583 18.0116 1.82427 17.5976 1.89848 17.1796C2.22661 15.3515 3.25786 13.8124 4.87505 12.7382C6.31255 11.7812 8.13286 11.2538 10 11.2538C11.8672 11.2538 13.6875 11.7812 15.125 12.7382C16.7422 13.8163 17.7735 15.3515 18.1016 17.1796C18.1758 17.5976 18.0743 18.0116 17.8204 18.3163C17.586 18.5937 17.25 18.7499 16.875 18.7499ZM3.13286 17.4999H16.8672C16.875 17.4804 16.879 17.4491 16.8711 17.3984C16.2657 14.0351 12.8829 12.4999 10 12.4999C7.11723 12.4999 3.73442 14.0351 3.12895 17.3984C3.12114 17.4491 3.12505 17.4804 3.13286 17.4999Z" fill="#0A0A0A"/>
</g>
</g>
</svg>
