<svg width="28" height="28" viewBox="0 0 28 28" fill="none" xmlns="http://www.w3.org/2000/svg">
<g id="cart">
<g id="Vector">
<path d="M9.625 24.5C10.5915 24.5 11.375 23.7165 11.375 22.75C11.375 21.7835 10.5915 21 9.625 21C8.6585 21 7.875 21.7835 7.875 22.75C7.875 23.7165 8.6585 24.5 9.625 24.5Z" fill="#616161"/>
<path d="M21.875 24.5C22.8415 24.5 23.625 23.7165 23.625 22.75C23.625 21.7835 22.8415 21 21.875 21C20.9085 21 20.125 21.7835 20.125 22.75C20.125 23.7165 20.9085 24.5 21.875 24.5Z" fill="#616161"/>
<path d="M25.0578 6.71016C24.8609 6.42031 24.5656 6.21797 24.2211 6.15234C24.1391 6.13594 24.0516 6.125 23.9641 6.125H7.32266L6.98906 4.22187C6.91797 3.80625 6.55156 3.5 6.125 3.5H2.625C2.14375 3.5 1.75 3.89375 1.75 4.375C1.75 4.85625 2.14375 5.25 2.625 5.25H5.39219L7.89141 19.4031C7.9625 19.8187 8.32891 20.125 8.75547 20.125H22.7555C23.2367 20.125 23.6305 19.7312 23.6305 19.25C23.6305 18.7687 23.2367 18.375 22.7555 18.375H9.48281L9.17656 16.625H22.3945C23.018 16.625 23.5594 16.182 23.6797 15.5695L25.2547 7.69453C25.3203 7.35 25.2547 7 25.0578 6.71016ZM22.0336 14.875H8.86484L7.62891 7.875H23.4281L22.0336 14.875Z" fill="#616161"/>
</g>
</g>
</svg>
