<svg width="118" height="118" viewBox="0 0 118 118" fill="none" xmlns="http://www.w3.org/2000/svg">
<g id="shopping-cart">
<g id="vuesax/bulk/shopping-cart">
<g id="shopping-cart_2">
<path id="Vector" d="M79.8959 110.625C84.6479 110.625 88.5001 106.773 88.5001 102.021C88.5001 97.2689 84.6479 93.4167 79.8959 93.4167C75.144 93.4167 71.2917 97.2689 71.2917 102.021C71.2917 106.773 75.144 110.625 79.8959 110.625Z" fill="#009499"/>
<path id="Vector_2" d="M40.5624 110.625C45.3144 110.625 49.1666 106.773 49.1666 102.021C49.1666 97.2689 45.3144 93.4167 40.5624 93.4167C35.8105 93.4167 31.9583 97.2689 31.9583 102.021C31.9583 106.773 35.8105 110.625 40.5624 110.625Z" fill="#009499"/>
<path id="Vector_3" opacity="0.4" d="M23.7966 19.3717L22.8132 31.4175C22.6166 33.7283 24.4358 35.6458 26.7466 35.6458H102.021C104.086 35.6458 105.807 34.0725 105.954 32.0075C106.593 23.305 99.9557 16.225 91.2532 16.225H30.9257C30.4341 14.0617 29.4507 11.9966 27.9265 10.2758C25.5174 7.66996 22.0758 6.14581 18.5358 6.14581H9.83325C7.81742 6.14581 6.14575 7.81748 6.14575 9.83331C6.14575 11.8491 7.81742 13.5208 9.83325 13.5208H18.3883C19.9124 13.5208 21.3383 14.16 22.3708 15.2417C23.4033 16.3725 23.8949 17.8475 23.7966 19.3717Z" fill="#009499"/>
<path id="Vector_4" d="M100.841 43.0208H25.419C23.354 43.0208 21.6824 44.5941 21.4857 46.61L19.7157 67.9975C19.0274 76.3558 25.6157 83.5833 34.0232 83.5833H88.6965C96.0715 83.5833 102.562 77.5358 103.102 70.1608L104.725 47.2C104.922 44.9383 103.152 43.0208 100.841 43.0208Z" fill="#009499"/>
</g>
</g>
</g>
</svg>
