<svg width="16" height="16" viewBox="0 0 16 16" fill="none" xmlns="http://www.w3.org/2000/svg">
<g id="time">
<g id="Vector">
<path fill-rule="evenodd" clip-rule="evenodd" d="M1.5 8C1.5 4.41136 4.41136 1.5 8 1.5C11.5886 1.5 14.5 4.41136 14.5 8C14.5 11.5886 11.5886 14.5 8 14.5C4.41136 14.5 1.5 11.5886 1.5 8ZM8 2.5C4.96364 2.5 2.5 4.96364 2.5 8C2.5 11.0364 4.96364 13.5 8 13.5C11.0364 13.5 13.5 11.0364 13.5 8C13.5 4.96364 11.0364 2.5 8 2.5Z" fill="#757575"/>
<path fill-rule="evenodd" clip-rule="evenodd" d="M8 3.5C8.27614 3.5 8.5 3.72386 8.5 4V8H11C11.2761 8 11.5 8.22386 11.5 8.5C11.5 8.77614 11.2761 9 11 9H8C7.72386 9 7.5 8.77614 7.5 8.5V4C7.5 3.72386 7.72386 3.5 8 3.5Z" fill="#757575"/>
</g>
</g>
</svg>
