<svg width="20" height="20" viewBox="0 0 20 20" fill="none" xmlns="http://www.w3.org/2000/svg">
<g id="exit">
<path id="Vector" fill-rule="evenodd" clip-rule="evenodd" d="M1.8907 3.7657C2.30094 3.35547 2.85734 3.125 3.4375 3.125H10.9375C11.5177 3.125 12.0741 3.35547 12.4843 3.7657C12.8945 4.17594 13.125 4.73234 13.125 5.3125V6.875C13.125 7.22018 12.8452 7.5 12.5 7.5C12.1548 7.5 11.875 7.22018 11.875 6.875V5.3125C11.875 5.06386 11.7762 4.8254 11.6004 4.64959C11.4246 4.47377 11.1861 4.375 10.9375 4.375H3.4375C3.18886 4.375 2.9504 4.47377 2.77459 4.64959C2.59877 4.8254 2.5 5.06386 2.5 5.3125V14.6875C2.5 14.9361 2.59877 15.1746 2.77459 15.3504C2.9504 15.5262 3.18886 15.625 3.4375 15.625H10.9375C11.1861 15.625 11.4246 15.5262 11.6004 15.3504C11.7762 15.1746 11.875 14.9361 11.875 14.6875V13.125C11.875 12.7798 12.1548 12.5 12.5 12.5C12.8452 12.5 13.125 12.7798 13.125 13.125V14.6875C13.125 15.2677 12.8945 15.8241 12.4843 16.2343C12.0741 16.6445 11.5177 16.875 10.9375 16.875H3.4375C2.85734 16.875 2.30094 16.6445 1.8907 16.2343C1.48047 15.8241 1.25 15.2677 1.25 14.6875V5.3125C1.25 4.73234 1.48047 4.17594 1.8907 3.7657ZM14.5581 6.43306C14.8021 6.18898 15.1979 6.18898 15.4419 6.43306L18.5669 9.55806C18.811 9.80214 18.811 10.1979 18.5669 10.4419L15.4419 13.5669C15.1979 13.811 14.8021 13.811 14.5581 13.5669C14.314 13.3229 14.314 12.9271 14.5581 12.6831L16.6161 10.625H7.46094C7.11576 10.625 6.83594 10.3452 6.83594 10C6.83594 9.65482 7.11576 9.375 7.46094 9.375H16.6161L14.5581 7.31694C14.314 7.07286 14.314 6.67714 14.5581 6.43306Z" fill="#CB3A31"/>
</g>
</svg>
