<svg width="40" height="40" viewBox="0 0 40 40" fill="none" xmlns="http://www.w3.org/2000/svg">
<rect width="40" height="40" rx="20" fill="#EBFEFF"/>
<path d="M30.4564 13.2199C30.4458 13.0523 30.3793 12.8932 30.2675 12.7679C30.1557 12.6427 30.0052 12.5585 29.8399 12.5289C25.7853 11.8014 24.0926 11.2755 20.3088 9.56645C20.2118 9.52257 20.1065 9.49988 19.9999 9.49988C19.8934 9.49988 19.7881 9.52257 19.691 9.56645C15.9073 11.2755 14.2146 11.8014 10.1599 12.5289C9.99469 12.5585 9.84414 12.6427 9.73239 12.7679C9.62063 12.8932 9.55413 13.0523 9.54354 13.2199C9.36307 16.0844 9.74791 18.7535 10.6887 21.153C11.4591 23.1103 12.5992 24.9008 14.0468 26.4269C16.5532 29.0861 19.2143 30.2411 19.722 30.4455C19.9024 30.5185 20.1041 30.5185 20.2845 30.4455C20.7921 30.2411 23.4532 29.0861 25.9596 26.4269C27.4049 24.9003 28.5428 23.1097 29.3112 21.153C30.252 18.7535 30.6368 16.0844 30.4564 13.2199ZM24.3157 16.7407L19.122 22.7407C19.0552 22.818 18.9733 22.8809 18.8813 22.9255C18.7894 22.9701 18.6892 22.9954 18.5871 22.9999H18.5562C18.3599 22.9999 18.1714 22.923 18.0312 22.7857L15.7249 20.5263C15.6546 20.4573 15.5985 20.3752 15.5599 20.2846C15.5213 20.194 15.5009 20.0966 15.4999 19.9981C15.4978 19.7992 15.5749 19.6076 15.7142 19.4655C15.8534 19.3234 16.0434 19.2424 16.2423 19.2404C16.4413 19.2384 16.6328 19.3155 16.7749 19.4547L18.5093 21.1558L23.1828 15.7591C23.3129 15.6087 23.4975 15.5161 23.6959 15.5018C23.8943 15.4875 24.0903 15.5525 24.2407 15.6827C24.3912 15.8129 24.4837 15.9974 24.498 16.1959C24.5124 16.3943 24.4473 16.5902 24.3171 16.7407H24.3157Z" fill="#009499"/>
</svg>
