<svg width="118" height="118" viewBox="0 0 118 118" fill="none" xmlns="http://www.w3.org/2000/svg">
<g id="folder-favorite">
<g id="vuesax/bulk/folder-favorite">
<g id="folder-favorite_2">
<path id="Vector" opacity="0.4" d="M106.888 46.4132H9.8335V31.5649C9.8335 19.5683 19.5685 9.83325 31.5652 9.83325H43.021C51.0352 9.83325 53.5427 12.4391 56.7385 16.7166L63.6218 25.8616C65.146 27.8774 65.3427 28.1724 68.1943 28.1724H81.9118C93.5643 28.1233 103.496 35.7932 106.888 46.4132Z" fill="#009499"/>
<path id="Vector_2" d="M108.118 53.2967C108.019 50.8875 107.626 48.6258 106.889 46.4133H9.8335V81.8625C9.8335 96.3667 21.6335 108.167 36.1377 108.167H81.8627C96.3668 108.167 108.167 96.3667 108.167 81.8625V54.4275C108.167 54.0833 108.167 53.6408 108.118 53.2967ZM71.4885 78.5192L60.9177 87.7625C60.3768 88.2542 59.6885 88.5 59.0002 88.5C58.3118 88.5 57.6235 88.2542 57.0827 87.7625L46.5118 78.5192C43.1685 75.5692 42.726 70.5542 45.4793 67.0633C48.331 63.5233 53.346 62.8842 56.9843 65.5883L58.951 67.0633L60.9177 65.5883C64.556 62.8842 69.571 63.5233 72.4227 67.0633C75.2743 70.5542 74.8318 75.5692 71.4885 78.5192Z" fill="#009499"/>
</g>
</g>
</g>
</svg>
