<svg width="40" height="40" viewBox="0 0 40 40" fill="none" xmlns="http://www.w3.org/2000/svg">
<rect width="40" height="40" rx="20" fill="#EBFEFF"/>
<path d="M20 18.5C20.8284 18.5 21.5 17.8284 21.5 17C21.5 16.1716 20.8284 15.5 20 15.5C19.1716 15.5 18.5 16.1716 18.5 17C18.5 17.8284 19.1716 18.5 20 18.5Z" fill="#009499"/>
<path d="M20 9.5C15.8647 9.5 12.5 12.718 12.5 16.6719C12.5 18.5548 13.3583 21.0589 15.0509 24.1147C16.4103 26.5681 17.983 28.7867 18.8009 29.8906C18.9392 30.0792 19.1199 30.2326 19.3284 30.3384C19.537 30.4441 19.7676 30.4992 20.0014 30.4992C20.2352 30.4992 20.4658 30.4441 20.6744 30.3384C20.8829 30.2326 21.0637 30.0792 21.2019 29.8906C22.0184 28.7867 23.5925 26.5681 24.9519 24.1147C26.6417 21.0598 27.5 18.5558 27.5 16.6719C27.5 12.718 24.1353 9.5 20 9.5ZM20 20C19.4067 20 18.8266 19.8241 18.3333 19.4944C17.8399 19.1648 17.4554 18.6962 17.2284 18.1481C17.0013 17.5999 16.9419 16.9967 17.0576 16.4147C17.1734 15.8328 17.4591 15.2982 17.8787 14.8787C18.2982 14.4591 18.8328 14.1734 19.4147 14.0576C19.9967 13.9419 20.5999 14.0013 21.1481 14.2284C21.6962 14.4554 22.1648 14.8399 22.4944 15.3333C22.8241 15.8266 23 16.4067 23 17C22.9991 17.7954 22.6828 18.5579 22.1204 19.1204C21.5579 19.6828 20.7954 19.9991 20 20Z" fill="#009499"/>
</svg>
