<svg width="16" height="16" viewBox="0 0 16 16" fill="none" xmlns="http://www.w3.org/2000/svg">
<g id="location">
<g id="Vector">
<path fill-rule="evenodd" clip-rule="evenodd" d="M3 5.78125C3 3.11917 5.26319 1 8 1C10.7368 1 13 3.11917 13 5.78125C13 7.28202 12.1886 9.1388 11.2997 10.7437C10.3975 12.3727 9.35849 13.8402 8.8013 14.5927C8.70936 14.7184 8.58914 14.8207 8.45034 14.8913C8.31083 14.9623 8.15652 14.9994 8 14.9994C7.84348 14.9994 7.68917 14.9623 7.54966 14.8913C7.41085 14.8207 7.29061 14.7184 7.19867 14.5927C6.64149 13.8399 5.60248 12.3718 4.70029 10.7426C3.81146 9.1376 3 7.28095 3 5.78125ZM8 2C5.76806 2 4 3.71771 4 5.78125C4 7.0003 4.68854 8.65724 5.5751 10.2582C6.44592 11.8306 7.45456 13.2573 8 13.9944C8.54542 13.2577 9.55408 11.8315 10.4249 10.2592C11.3114 8.65855 12 7.00142 12 5.78125C12 3.71771 10.2319 2 8 2Z" fill="#404040"/>
<path fill-rule="evenodd" clip-rule="evenodd" d="M8 5C7.44772 5 7 5.44772 7 6C7 6.55228 7.44772 7 8 7C8.55228 7 9 6.55228 9 6C9 5.44772 8.55228 5 8 5ZM6 6C6 4.89543 6.89543 4 8 4C9.10457 4 10 4.89543 10 6C10 7.10457 9.10457 8 8 8C6.89543 8 6 7.10457 6 6Z" fill="#404040"/>
</g>
</g>
</svg>
