<svg width="36" height="36" viewBox="0 0 36 36" fill="none" xmlns="http://www.w3.org/2000/svg">
<g id="logo-89" clip-path="url(#clip0_1471_1107)">
<path id="Vector" d="M35.9502 19.3499H29.5201C23.9033 19.3499 19.3501 23.9031 19.3501 29.5199V35.95C28.215 35.2926 35.2929 28.2148 35.9502 19.3499Z" fill="#009499"/>
<path id="Vector_2" d="M16.6505 35.95V29.5199C16.6505 23.9031 12.0972 19.3499 6.48043 19.3499H0.050293C0.707594 28.2148 7.78552 35.2926 16.6505 35.95Z" fill="#009499"/>
<path id="Vector_3" d="M35.9502 16.6497C35.2929 7.78479 28.215 0.706861 19.3501 0.0495605V6.4797C19.3501 12.0964 23.9033 16.6497 29.5201 16.6497H35.9502Z" fill="#009499"/>
<path id="Vector_4" d="M16.6505 0.0495605C7.78552 0.706861 0.707594 7.78479 0.050293 16.6497H6.48043C12.0972 16.6497 16.6505 12.0964 16.6505 6.4797V0.0495605Z" fill="#009499"/>
<path id="Vector_5" d="M12.2246 17.9999C14.7199 16.7532 16.7534 14.7196 18.0001 12.2244C19.2469 14.7196 21.2803 16.7532 23.7757 17.9999C21.2803 19.2466 19.2469 21.2802 18.0001 23.7754C16.7534 21.2802 14.7199 19.2466 12.2246 17.9999Z" fill="#FC9918"/>
</g>
<defs>
<clipPath id="clip0_1471_1107">
<rect width="36" height="36" fill="white"/>
</clipPath>
</defs>
</svg>
