<svg width="141" height="140" viewBox="0 0 141 140" fill="none" xmlns="http://www.w3.org/2000/svg">
<g id="bag-cross">
<g id="vuesax/bulk/bag-cross">
<g id="bag-cross_2">
<path id="Vector" opacity="0.4" d="M94.9418 51.6834C92.6668 51.6834 90.8584 49.8751 90.8584 47.6001V40.1334C90.8584 34.4167 88.4084 28.9334 84.2084 25.0834C79.8918 21.1751 74.3501 19.3667 68.5168 19.8917C58.7168 20.8251 50.1418 30.8001 50.1418 41.1834V46.4334C50.1418 48.7084 48.3334 50.5167 46.0584 50.5167C43.7834 50.5167 41.9751 48.7084 41.9751 46.4334V41.1834C41.9751 26.6001 53.7584 13.1251 67.7001 11.7834C75.8084 11.0251 83.6251 13.5917 89.6334 19.0751C95.5834 24.4417 98.9668 32.1417 98.9668 40.1334V47.6001C98.9668 49.8751 97.1584 51.6834 94.9418 51.6834Z" fill="#009499"/>
<path id="Vector_2" d="M116.933 52.2666C112.033 46.8416 103.983 44.2166 92.1999 44.2166H48.7999C37.0166 44.2166 28.9666 46.8416 24.0666 52.2666C18.4082 58.5666 18.5832 66.9665 19.2249 72.7999L23.3082 105.292C24.5332 116.667 29.1416 128.333 54.2249 128.333H86.7749C111.858 128.333 116.467 116.667 117.692 105.35L121.775 72.7416C122.417 66.9666 122.592 58.5666 116.933 52.2666ZM70.4999 108.383C58.3082 108.383 48.3916 98.4665 48.3916 86.2749C48.3916 74.0832 58.3082 64.1666 70.4999 64.1666C82.6916 64.1666 92.6082 74.0832 92.6082 86.2749C92.6082 98.4665 82.6916 108.383 70.4999 108.383Z" fill="#009499"/>
<path id="Vector_3" opacity="0.4" d="M70.4999 108.383C82.71 108.383 92.6083 98.4852 92.6083 86.2751C92.6083 74.065 82.71 64.1667 70.4999 64.1667C58.2898 64.1667 48.3916 74.065 48.3916 86.2751C48.3916 98.4852 58.2898 108.383 70.4999 108.383Z" fill="#009499"/>
<path id="Vector_4" d="M79.8334 89.3083L76.7417 86.2166L79.6584 83.2999C81.35 81.6083 81.35 78.8083 79.6584 77.1166C77.9667 75.4249 75.1667 75.4249 73.475 77.1166L70.5584 80.0333L67.4667 76.9416C65.775 75.2499 62.975 75.2499 61.2834 76.9416C59.5917 78.6333 59.5917 81.4333 61.2834 83.1249L64.375 86.2166L61.1667 89.4249C59.475 91.1166 59.475 93.9166 61.1667 95.6083C62.0417 96.4833 63.15 96.8916 64.2584 96.8916C65.3667 96.8916 66.475 96.4833 67.35 95.6083L70.5584 92.3999L73.65 95.4916C74.525 96.3666 75.6334 96.7749 76.7417 96.7749C77.85 96.7749 78.9584 96.3666 79.8334 95.4916C81.525 93.7999 81.525 91.0583 79.8334 89.3083Z" fill="#009499"/>
</g>
</g>
</g>
</svg>
