<svg width="119" height="118" viewBox="0 0 119 118" fill="none" xmlns="http://www.w3.org/2000/svg">
<g id="vuesax/bulk/bag-2">
<g id="bag-2">
<path id="Vector" opacity="0.4" d="M80.1008 43.5616C78.1833 43.5616 76.6592 42.0375 76.6592 40.12V33.8266C76.6592 29.0083 74.5942 24.3866 71.0542 21.1416C67.4159 17.8475 62.745 16.3233 57.8284 16.7658C49.5684 17.5525 42.3409 25.96 42.3409 34.7116V39.1366C42.3409 41.0541 40.8167 42.5783 38.8992 42.5783C36.9817 42.5783 35.4575 41.0541 35.4575 39.1366V34.7116C35.4575 22.42 45.3892 11.0625 57.14 9.93162C63.9742 9.29246 70.5625 11.4558 75.6267 16.0775C80.6417 20.6008 83.4933 27.0908 83.4933 33.8266V40.12C83.4933 42.0375 81.9692 43.5616 80.1008 43.5616Z" fill="#009499"/>
<path id="Vector_2" d="M98.6367 44.0533C94.5067 39.4808 87.7217 37.2683 77.79 37.2683H41.21C31.2783 37.2683 24.4933 39.4808 20.3633 44.0533C15.5942 49.3633 15.7417 56.4433 16.2825 61.36L19.7242 88.7458C20.7567 98.3333 24.6408 108.167 45.7825 108.167H73.2175C94.3592 108.167 98.2433 98.3333 99.2758 88.795L102.718 61.3108C103.258 56.4433 103.357 49.3633 98.6367 44.0533ZM41.8983 64.6541H41.8492C39.145 64.6541 36.9325 62.4416 36.9325 59.7375C36.9325 57.0333 39.145 54.8208 41.8492 54.8208C44.6025 54.8208 46.815 57.0333 46.815 59.7375C46.815 62.4416 44.6025 64.6541 41.8983 64.6541ZM76.315 64.6541H76.2658C73.5617 64.6541 71.3492 62.4416 71.3492 59.7375C71.3492 57.0333 73.5617 54.8208 76.2658 54.8208C79.0192 54.8208 81.2317 57.0333 81.2317 59.7375C81.2317 62.4416 79.0192 64.6541 76.315 64.6541Z" fill="#009499"/>
</g>
</g>
</svg>
